<mxfile host="app.diagrams.net" modified="2022-10-24T13:09:44.565Z" agent="5.0 (Windows NT 10.0; Win64; x64) AppleWebKit/537.36 (KHTML, like Gecko) Chrome/106.0.0.0 Safari/537.36" etag="GdCwfwyFEbl_Nw_kNTYK" version="20.5.1" type="github">
  <diagram id="fHtJ7WiXhjpOoc_YXKou" name="PÃ¡gina-1">
    <mxGraphModel dx="1422" dy="737" grid="1" gridSize="10" guides="1" tooltips="1" connect="1" arrows="1" fold="1" page="1" pageScale="1" pageWidth="827" pageHeight="1169" math="0" shadow="0">
      <root>
        <mxCell id="0" />
        <mxCell id="1" parent="0" />
        <mxCell id="VdDlaUOOZkIFanLTFvpt-1" value="Entrenador" style="swimlane;fontStyle=0;childLayout=stackLayout;horizontal=1;startSize=30;horizontalStack=0;resizeParent=1;resizeParentMax=0;resizeLast=0;collapsible=1;marginBottom=0;" vertex="1" parent="1">
          <mxGeometry x="70" y="40" width="140" height="170" as="geometry" />
        </mxCell>
        <mxCell id="VdDlaUOOZkIFanLTFvpt-2" value="-String ID" style="text;strokeColor=none;fillColor=none;align=left;verticalAlign=middle;spacingLeft=4;spacingRight=4;overflow=hidden;points=[[0,0.5],[1,0.5]];portConstraint=eastwest;rotatable=0;" vertex="1" parent="VdDlaUOOZkIFanLTFvpt-1">
          <mxGeometry y="30" width="140" height="30" as="geometry" />
        </mxCell>
        <mxCell id="VdDlaUOOZkIFanLTFvpt-3" value="-String Nombre" style="text;strokeColor=none;fillColor=none;align=left;verticalAlign=middle;spacingLeft=4;spacingRight=4;overflow=hidden;points=[[0,0.5],[1,0.5]];portConstraint=eastwest;rotatable=0;" vertex="1" parent="VdDlaUOOZkIFanLTFvpt-1">
          <mxGeometry y="60" width="140" height="30" as="geometry" />
        </mxCell>
        <mxCell id="VdDlaUOOZkIFanLTFvpt-5" value="-Caminar&lt;br&gt;-Interactuar&lt;br&gt;-GestionarPikmin" style="whiteSpace=wrap;html=1;aspect=fixed;align=left;" vertex="1" parent="VdDlaUOOZkIFanLTFvpt-1">
          <mxGeometry y="90" width="140" height="80" as="geometry" />
        </mxCell>
        <mxCell id="VdDlaUOOZkIFanLTFvpt-6" value="Pikmin" style="swimlane;fontStyle=0;childLayout=stackLayout;horizontal=1;startSize=30;horizontalStack=0;resizeParent=1;resizeParentMax=0;resizeLast=0;collapsible=1;marginBottom=0;" vertex="1" parent="1">
          <mxGeometry x="120" y="280" width="145" height="185" as="geometry" />
        </mxCell>
        <mxCell id="VdDlaUOOZkIFanLTFvpt-7" value="-String Raza" style="text;strokeColor=none;fillColor=none;align=left;verticalAlign=middle;spacingLeft=4;spacingRight=4;overflow=hidden;points=[[0,0.5],[1,0.5]];portConstraint=eastwest;rotatable=0;" vertex="1" parent="VdDlaUOOZkIFanLTFvpt-6">
          <mxGeometry y="30" width="145" height="30" as="geometry" />
        </mxCell>
        <mxCell id="VdDlaUOOZkIFanLTFvpt-8" value="-String Apodo" style="text;strokeColor=none;fillColor=none;align=left;verticalAlign=middle;spacingLeft=4;spacingRight=4;overflow=hidden;points=[[0,0.5],[1,0.5]];portConstraint=eastwest;rotatable=0;" vertex="1" parent="VdDlaUOOZkIFanLTFvpt-6">
          <mxGeometry y="60" width="145" height="30" as="geometry" />
        </mxCell>
        <mxCell id="VdDlaUOOZkIFanLTFvpt-10" value="" style="swimlane;startSize=0;" vertex="1" parent="VdDlaUOOZkIFanLTFvpt-6">
          <mxGeometry y="90" width="145" height="95" as="geometry" />
        </mxCell>
        <mxCell id="VdDlaUOOZkIFanLTFvpt-11" value="-Evolucionar" style="text;html=1;align=center;verticalAlign=middle;resizable=0;points=[];autosize=1;strokeColor=none;fillColor=none;" vertex="1" parent="VdDlaUOOZkIFanLTFvpt-10">
          <mxGeometry width="90" height="30" as="geometry" />
        </mxCell>
        <mxCell id="VdDlaUOOZkIFanLTFvpt-22" value="&amp;nbsp; &amp;nbsp;-Habilidad tipo" style="text;html=1;align=left;verticalAlign=middle;resizable=0;points=[];autosize=1;strokeColor=none;fillColor=none;" vertex="1" parent="VdDlaUOOZkIFanLTFvpt-10">
          <mxGeometry y="30" width="110" height="30" as="geometry" />
        </mxCell>
        <mxCell id="VdDlaUOOZkIFanLTFvpt-27" value="-Habilidad segunda" style="text;html=1;align=center;verticalAlign=middle;resizable=0;points=[];autosize=1;strokeColor=none;fillColor=none;" vertex="1" parent="VdDlaUOOZkIFanLTFvpt-10">
          <mxGeometry y="60" width="130" height="30" as="geometry" />
        </mxCell>
        <mxCell id="VdDlaUOOZkIFanLTFvpt-34" value="Type" style="swimlane;fontStyle=1;align=center;verticalAlign=top;childLayout=stackLayout;horizontal=1;startSize=26;horizontalStack=0;resizeParent=1;resizeParentMax=0;resizeLast=0;collapsible=1;marginBottom=0;" vertex="1" parent="1">
          <mxGeometry x="480" y="50" width="160" height="86" as="geometry" />
        </mxCell>
        <mxCell id="VdDlaUOOZkIFanLTFvpt-35" value="+ field: NomTipo" style="text;strokeColor=none;fillColor=none;align=left;verticalAlign=top;spacingLeft=4;spacingRight=4;overflow=hidden;rotatable=0;points=[[0,0.5],[1,0.5]];portConstraint=eastwest;" vertex="1" parent="VdDlaUOOZkIFanLTFvpt-34">
          <mxGeometry y="26" width="160" height="26" as="geometry" />
        </mxCell>
        <mxCell id="VdDlaUOOZkIFanLTFvpt-36" value="" style="line;strokeWidth=1;fillColor=none;align=left;verticalAlign=middle;spacingTop=-1;spacingLeft=3;spacingRight=3;rotatable=0;labelPosition=right;points=[];portConstraint=eastwest;strokeColor=inherit;" vertex="1" parent="VdDlaUOOZkIFanLTFvpt-34">
          <mxGeometry y="52" width="160" height="8" as="geometry" />
        </mxCell>
        <mxCell id="VdDlaUOOZkIFanLTFvpt-37" value="+ method(type): type" style="text;strokeColor=none;fillColor=none;align=left;verticalAlign=top;spacingLeft=4;spacingRight=4;overflow=hidden;rotatable=0;points=[[0,0.5],[1,0.5]];portConstraint=eastwest;" vertex="1" parent="VdDlaUOOZkIFanLTFvpt-34">
          <mxGeometry y="60" width="160" height="26" as="geometry" />
        </mxCell>
        <mxCell id="VdDlaUOOZkIFanLTFvpt-47" value="Raza" style="swimlane;fontStyle=1;align=center;verticalAlign=top;childLayout=stackLayout;horizontal=1;startSize=26;horizontalStack=0;resizeParent=1;resizeParentMax=0;resizeLast=0;collapsible=1;marginBottom=0;" vertex="1" parent="1">
          <mxGeometry x="280" y="40" width="160" height="210" as="geometry" />
        </mxCell>
        <mxCell id="VdDlaUOOZkIFanLTFvpt-48" value="+ String: Nombre&#xa;+ String: Type&#xa;+ String: ID" style="text;strokeColor=none;fillColor=none;align=left;verticalAlign=top;spacingLeft=4;spacingRight=4;overflow=hidden;rotatable=0;points=[[0,0.5],[1,0.5]];portConstraint=eastwest;" vertex="1" parent="VdDlaUOOZkIFanLTFvpt-47">
          <mxGeometry y="26" width="160" height="84" as="geometry" />
        </mxCell>
        <mxCell id="VdDlaUOOZkIFanLTFvpt-49" value="" style="line;strokeWidth=1;fillColor=none;align=left;verticalAlign=middle;spacingTop=-1;spacingLeft=3;spacingRight=3;rotatable=0;labelPosition=right;points=[];portConstraint=eastwest;strokeColor=inherit;" vertex="1" parent="VdDlaUOOZkIFanLTFvpt-47">
          <mxGeometry y="110" width="160" height="8" as="geometry" />
        </mxCell>
        <mxCell id="VdDlaUOOZkIFanLTFvpt-50" value="+ method(type): type" style="text;strokeColor=none;fillColor=none;align=left;verticalAlign=top;spacingLeft=4;spacingRight=4;overflow=hidden;rotatable=0;points=[[0,0.5],[1,0.5]];portConstraint=eastwest;" vertex="1" parent="VdDlaUOOZkIFanLTFvpt-47">
          <mxGeometry y="118" width="160" height="92" as="geometry" />
        </mxCell>
      </root>
    </mxGraphModel>
  </diagram>
</mxfile>
